<svg xmlns="http://www.w3.org/2000/svg" viewBox="0 0 100 100" fill="none"
     stroke="#4ec94e" stroke-linecap="round" stroke-linejoin="round">
  <!-- rounded square -->
  <rect x="4" y="4" width="92" height="92" rx="20" stroke-width="5"/>
  <!-- 8 corner ripple arcs top-right -->
  <path d="M70 4  Q96 4 96 30" stroke-width="4"   opacity="1"/>
  <path d="M59 4  Q96 4 96 41" stroke-width="3.8" opacity="0.88"/>
  <path d="M48 4  Q96 4 96 52" stroke-width="3.5" opacity="0.74"/>
  <path d="M37 4  Q96 4 96 63" stroke-width="3.2" opacity="0.6"/>
  <path d="M26 4  Q96 4 96 74" stroke-width="2.9" opacity="0.46"/>
  <path d="M15 4  Q96 4 96 85" stroke-width="2.6" opacity="0.32"/>
  <path d="M4  4  Q96 4 96 96" stroke-width="2.3" opacity="0.18"/>
  <path d="M4  15 Q4  96 15 96" stroke-width="2"  opacity="0.09"/>
  <!-- >_ glyph centered -->
  <path d="M28 38 L50 52 L28 66" stroke-width="7"/>
  <line x1="54" y1="66" x2="76" y2="66" stroke-width="7"/>
</svg>